
        <svg xmlns="http://www.w3.org/2000/svg" xmlns:xlink="http://www.w3.org/1999/xlink" version="1.1" width="3168.5393258426966" 
        height="960.674157303371" viewBox="0 0 3168.5393258426966 960.674157303371">
			<rect fill="#ffffff" width="3168.5393258426966" height="960.674157303371"/>
			<g transform="scale(8.426966292134832) translate(10, 10)">
				<defs id="SvgjsDefs3030"></defs><g id="SvgjsG3031" featureKey="Hwge0E-0" transform="matrix(0.9999939728146475,0,0,0.9999939728146475,-2.5003797508239507,-5.235918377872325)" fill="#521262"><g xmlns="http://www.w3.org/2000/svg"><path fill="#521262" d="M9.898,46.434"></path><path fill="#521262" d="M92.544,39.92c0,3.119-0.937,6.005-2.482,8.504h10.884c0.96-2.67,1.555-5.509,1.555-8.504   c0-14.716-12.22-26.684-27.239-26.684c-8.168,0-15.424,3.613-20.421,9.215c-5.273-5.602-12.938-9.215-21.563-9.215   c-10.964,0-20.407,5.794-25.252,14.193l8.501,5.049c3.086-5.486,9.391-9.291,16.751-9.291c6.975,0,13.317,2.753,17.578,7.404   c1.093,1.193,4.407,5.172,4.407,5.172s3.533-3.806,4.569-5.172c3.485-4.613,9.081-7.404,15.429-7.404   C84.804,23.188,92.544,30.677,92.544,39.92z"></path><path fill="#521262" d="M74.505,56.925c-0.552-2.489,0-5.251,0-5.251c-7.674,2.885-10.508,15.205-10.508,15.205l-8.572,16.037   c-3.595-20.74-13.698-29.008-17.883-34.492c-3.224-4.229-8.996-11.469-8.111-8.918c0.86,2.478,0,5.529,0,5.529   C28.047,42.273,18.096,38.4,18.096,38.4C4.825,33.422,5.187,24.485,5.187,24.485c-4.465,9.18-2.881,19.396,1.218,29.263   c5.044,12.142,29.968,23.317,36.297,26.957c7.369,4.236,10.465,11.059,10.465,11.059h1.707l1.184-1.549   c3.595-5.533,11.202-10.879,16.047-13.338c9.628-4.893,18.805-15.485,18.805-15.485c3.79-3.958,10.741-9.114,10.741-9.114   C87.675,47.104,74.505,56.925,74.505,56.925z M27.634,60.165c-8.578-4.228-13.827-14.088-13.827-14.088s4.688,6.732,15.016,12.317   c2.425,1.312,4.755,3.068,6.933,5.051c0.1-1.944-0.238-3.937-0.837-5.334c-2.178-5.064-3.105-8.117-3.105-8.117   s2.021,3.553,4.304,8.117c1.141,2.287,1.412,4.793,1.412,7.022l-0.034-0.017c8.383,8.361,14.179,19.425,14.179,19.425   S39.701,66.115,27.634,60.165z M73.592,70.566C66.099,73.487,58.03,83.846,58.03,83.846s4.018-6.288,9.433-10.838l-0.019,0.009   c0.114-1.326,0.404-2.806,1.203-4.108c1.593-2.6,2.976-4.611,2.976-4.611s-0.708,1.769-2.263,4.674   c-0.428,0.799-0.732,1.969-0.771,3.133c1.397-1.069,2.872-1.996,4.384-2.652c6.434-2.796,9.571-6.564,9.571-6.564   S78.912,68.49,73.592,70.566z"></path><path fill="#521262" d="M42.002,68.139"></path></g></g><g id="SvgjsG3032" featureKey="textGroupContainer" transform="matrix(1,0,0,1,355,0)" fill="#521262"><rect xmlns="http://www.w3.org/2000/svg" y="0" height="1" width="1" opacity="0"></rect><rect xmlns="http://www.w3.org/2000/svg" y="0" x="-235" width="3" height="94"></rect></g><g id="SvgjsG3033" featureKey="nameFeature-0" transform="matrix(1.961792991864528,0,0,1.961792991864528,136.83778153477613,12.857015207517772)" fill="#521262"><path d="M15.5 6 c0.22 0 0.3 0.64 0.04 0.68 c-0.8 0.12 -1.32 0.44 -2.04 2.12 l-3.38 7.86 c-0.7 1.62 -1.02 2.54 -1.02 3.34 c0 0.12 -1.38 0.44 -1.44 0.3 l-4.86 -11.48 c-0.72 -1.72 -1.26 -2.02 -2.04 -2.14 c-0.26 -0.04 -0.2 -0.68 0.06 -0.68 l5.26 0 c0.26 0 0.3 0.64 0.06 0.68 c-0.74 0.12 -1.48 0.44 -0.78 2.12 l3.38 8.12 l3.38 -8.12 c0.72 -1.72 -0.08 -1.98 -1 -2.12 c-0.26 -0.04 -0.2 -0.68 0.06 -0.68 l4.32 0 z M17.3 20 c-0.16 0 -0.28 -0.66 -0.12 -0.68 c1.02 -0.14 1.66 -0.54 1.66 -1.8 l0 -9.04 c0 -1.26 -0.64 -1.66 -1.66 -1.8 c-0.16 -0.02 -0.04 -0.68 0.12 -0.68 l5.48 0 c0.16 0 0.28 0.66 0.12 0.68 c-0.86 0.12 -1.66 0.4 -1.66 1.8 l0 9.04 c0 1.4 0.8 1.68 1.66 1.8 c0.16 0.02 0.04 0.68 -0.12 0.68 l-5.48 0 z M30.380000000000003 19.32 c0.16 0.02 0.04 0.68 -0.12 0.68 l-5.48 0 c-0.16 0 -0.28 -0.66 -0.12 -0.68 c1.02 -0.14 1.66 -0.54 1.66 -1.8 l0 -9.04 c0 -1.26 -0.64 -1.66 -1.66 -1.8 c-0.16 -0.02 -0.04 -0.68 0.12 -0.68 l5.48 0 c0.16 0 0.28 0.66 0.12 0.68 c-0.86 0.12 -1.66 0.4 -1.66 1.8 l0 9.04 c0 1.4 0.8 1.68 1.66 1.8 z M38.88 19.5 c0.16 0 0.12 0.54 0 0.58 c-1.26 0.42 -3.04 0.28 -4.26 -1.04 l-5.66 -6.12 l4.52 -4.64 c0.96 -0.98 0.9 -1.42 -0.16 -1.6 c-0.24 -0.04 -0.14 -0.68 0.02 -0.68 l4.6 0 c0.16 0 0.28 0.66 0.08 0.68 c-0.88 0.12 -1.92 0.52 -3.18 1.82 l-3.54 3.64 l5.16 5.54 c1.3 1.38 2 1.82 2.42 1.82 z M52.78 20.32 c-3.36 0 -7.9 -1.96 -7.9 -7.06 c0 -3.46 2.12 -7.58 7.72 -7.58 c2.32 0 4.32 0.72 4.08 1.42 l-0.26 0.78 c-0.72 2.14 -1.5 -0.6 -5.06 -0.6 c-2.86 0 -4.26 1.86 -4.26 4.74 c0 4.5 3.42 6.38 6.16 6.38 c0.36 0 2.18 -0.28 3.22 -0.94 c0.16 -0.1 0.58 0.36 0.46 0.54 c-0.86 1.26 -3.54 2.32 -4.16 2.32 z M73.4 19.32 c0.28 0.04 0.2 0.68 -0.04 0.68 l-5.28 0 c-0.26 0 -0.28 -0.64 -0.06 -0.68 c0.74 -0.14 1.54 -0.4 0.8 -2.12 l-0.22 -0.5 c-0.2 -0.48 -0.54 -0.52 -1.14 -0.52 l-4.08 0 c-0.6 0 -0.94 0.04 -1.14 0.52 l-0.2 0.5 c-0.7 1.72 0.06 1.98 1.02 2.12 c0.26 0.04 0.2 0.68 -0.06 0.68 l-4.32 0 c-0.24 0 -0.3 -0.64 -0.06 -0.68 c0.82 -0.14 1.3 -0.42 2.04 -2.12 l3.38 -7.76 c0.78 -1.76 1.02 -2.58 1.02 -3.34 c0 -0.12 1.4 -0.44 1.46 -0.3 l4.88 11.38 c0.72 1.7 1.2 2.02 2 2.14 z M67.32 15.059999999999999 c0.28 0 0.58 -0.04 0.46 -0.32 l-2.34 -5.6 l-2.36 5.6 c-0.12 0.28 0.18 0.32 0.46 0.32 l3.78 0 z M89.58 19.5 c0.16 0 0.12 0.54 0 0.58 c-1.26 0.42 -3 0.36 -4.2 -1.18 l-3.08 -3.96 c-0.86 -1.12 -1.88 -1.28 -3.28 -1.3 l0 3.88 c0 1.4 0.96 1.64 2.24 1.8 c0.14 0.02 0.04 0.68 -0.12 0.68 l-6.06 0 c-0.16 0 -0.28 -0.66 -0.12 -0.68 c1.02 -0.14 1.66 -0.54 1.66 -1.8 l0 -8.92 c0 -1.32 -0.7 -1.7 -1.66 -1.96 c-0.16 -0.04 -0.06 -0.7 0.12 -0.68 c0.78 0.1 1.66 0.12 2.3 0.12 c1.48 0 2.86 -0.12 3.82 -0.12 c3.02 0 5.04 1.24 5.04 3.7 c0 2.32 -1.88 3.46 -3.56 3.56 l0 0.1 c0.8 0 1.38 0.34 2.26 1.44 l2.98 3.74 c0.62 0.78 1.22 1 1.66 1 z M79.6 12.719999999999999 c2.98 0 4.12 -0.52 4.12 -2.52 c0 -2.14 -1.36 -3.2 -3.14 -3.2 c-1.18 0 -1.56 0.48 -1.56 1.6 l0 4.12 l0.58 0 z M90.68 20.04 c-0.2 0.02 -0.28 -0.68 -0.12 -0.72 c1.16 -0.3 2.06 -0.48 2.06 -1.96 l0 -8.88 c0 -1.28 -0.82 -1.62 -1.68 -1.84 c-0.16 -0.04 -0.06 -0.7 0.1 -0.68 c1.46 0.16 3.98 0.12 5.2 0.12 c1.82 0 3.14 -0.08 4.78 -0.12 c0.48 0 0.48 0.32 0.38 0.78 l-0.48 1.9 c-0.06 0.28 -0.56 0.28 -0.64 0 c-0.3 -0.98 -0.9 -1.54 -3.4 -1.54 c-1.4 0 -1.86 0.36 -1.86 1.4 l0 3.26 c0 0.52 0.26 0.62 0.66 0.62 l0.44 0 c1.62 0 3.02 -0.16 3.84 -0.9 c0.2 -0.18 0.64 -0.14 0.46 0.26 l-1.14 2.52 c-0.16 0.36 -0.46 0.32 -0.68 0.02 c-0.46 -0.64 -1.48 -0.9 -2.64 -0.9 l-0.28 0 c-0.4 0 -0.66 0.1 -0.66 0.62 l0 3.36 c0 1.14 0.48 1.56 2.14 1.56 c3.02 0 4.22 -1.38 4.7 -2.14 c0.14 -0.22 0.68 -0.12 0.68 0.22 c0 1.02 -0.86 3.04 -2.12 3.04 c-1.12 -0.06 -2.22 -0.12 -3.9 -0.12 c-1.84 0 -4.02 -0.06 -5.84 0.12 z"></path></g><g id="SvgjsG3034" featureKey="sloganFeature-0" transform="matrix(0.5500776767745972,0,0,0.5500776767745972,137.15288066104839,60.10659103196535)" fill="#521262"><path d="M10.98 11.58 l0 -5.94 l1.94 0 l0 14.36 l-1.94 0 l0 -6.7 l-7.5 0 l0 6.7 l-1.94 0 l0 -14.36 l1.94 0 l0 5.94 l7.5 0 z M30.092 18.28 l0 1.72 l-10.6 0 l0 -14.36 l10.46 0 l0 1.72 l-8.52 0 l0 4.4 l7.86 0 l0 1.72 l-7.86 0 l0 4.8 l8.66 0 z M43.984 15.82 l-5.76 0 l-1.5 4.18 l-2 0 l5.4 -14.36 l2.2 0 l5.2 14.36 l-2.12 0 z M38.824000000000005 14.1 l4.46 0 l-2.12 -6.32 l-0.04 0 z M54.576 5.640000000000001 l0 12.64 l7.28 0 l0 1.72 l-9.22 0 l0 -14.36 l1.94 0 z M65.848 7.359999999999999 l0 -1.72 l11.66 0 l0 1.72 l-4.86 0 l0 12.64 l-1.94 0 l0 -12.64 l-4.86 0 z M92.10000000000001 11.58 l0 -5.94 l1.94 0 l0 14.36 l-1.94 0 l0 -6.7 l-7.5 0 l0 6.7 l-1.94 0 l0 -14.36 l1.94 0 l0 5.94 l7.5 0 z M106.532 14.219999999999999 l0 5.78 l-1.94 0 l0 -5.78 l-5.42 -8.58 l2.26 0 l4.12 6.9 l4.12 -6.9 l2.28 0 z M127.91599999999998 5.640000000000001 l0 12.64 l7.28 0 l0 1.72 l-9.22 0 l0 -14.36 l1.94 0 z M142.66799999999998 5.640000000000001 l0 14.36 l-1.94 0 l0 -14.36 l1.94 0 z M151.45999999999998 13.48 l0 6.52 l-1.94 0 l0 -14.36 l9.94 0 l0 1.72 l-8 0 l0 4.4 l7.04 0 l0 1.72 l-7.04 0 z M175.67199999999997 18.28 l0 1.72 l-10.6 0 l0 -14.36 l10.46 0 l0 1.72 l-8.52 0 l0 4.4 l7.86 0 l0 1.72 l-7.86 0 l0 4.8 l8.66 0 z M198.33599999999996 8.1 l-3.32 11.9 l-2.04 0 l-3.74 -14.36 l2.1 0 l2.68 11.68 l0.04 0 l3.22 -11.68 l2.12 0 l3.22 11.68 l0.04 0 l2.68 -11.68 l2.14 0 l-3.78 14.36 l-2.04 0 l-3.28 -11.9 l-0.04 0 z M214.88799999999995 5.640000000000001 l0 14.36 l-1.94 0 l0 -14.36 l1.94 0 z M220.29999999999995 7.359999999999999 l0 -1.72 l11.66 0 l0 1.72 l-4.86 0 l0 12.64 l-1.94 0 l0 -12.64 l-4.86 0 z M246.55199999999994 11.58 l0 -5.94 l1.94 0 l0 14.36 l-1.94 0 l0 -6.7 l-7.5 0 l0 6.7 l-1.94 0 l0 -14.36 l1.94 0 l0 5.94 l7.5 0 z M273.17599999999993 5.640000000000001 l1.94 0 l0 9.32 c0 2.94 -1.84 5.42 -5.78 5.42 c-3.86 0 -5.52 -2.48 -5.52 -5.16 l0 -9.58 l1.94 0 l0 9.04 c0 3.12 1.9 3.98 3.64 3.98 c1.78 0 3.78 -0.82 3.78 -3.94 l0 -9.08 z M292.0079999999999 9.84 l-1.82 0 c-0.1 -2.22 -1.94 -2.92 -3.56 -2.92 c-1.22 0 -3.28 0.34 -3.28 2.52 c0 1.22 0.86 1.62 1.7 1.82 l4.1 0.94 c1.86 0.44 3.26 1.56 3.26 3.84 c0 3.4 -3.16 4.34 -5.62 4.34 c-2.66 0 -3.7 -0.8 -4.34 -1.38 c-1.22 -1.1 -1.46 -2.3 -1.46 -3.64 l1.82 0 c0 2.6 2.12 3.36 3.96 3.36 c1.4 0 3.76 -0.36 3.76 -2.42 c0 -1.5 -0.7 -1.98 -3.06 -2.54 l-2.94 -0.68 c-0.94 -0.22 -3.06 -0.88 -3.06 -3.38 c0 -2.24 1.46 -4.44 4.94 -4.44 c5.02 0 5.52 3 5.6 4.58 z"></path></g>
			</g>
		</svg>
	